<svg width="200" height="80" viewBox="0 0 200 80" fill="none" xmlns="http://www.w3.org/2000/svg">
<path d="M38.889 44.888H61.1112V67.1102H38.889V44.888Z" fill="#2160FD"/>
<path d="M50.0001 11.6458C49.082 11.5854 48.1557 11.5547 47.2223 11.5547C24.2105 11.5547 5.55566 30.2095 5.55566 53.2214C5.55566 54.154 5.58631 55.0796 5.64665 55.997H33.3335V39.3303H50.0001V11.6458Z" fill="#2160FD"/>
<path d="M72.2227 40.4467C72.2227 37.3418 72.8277 34.5881 74.0379 32.1855C75.2848 29.7828 76.9717 27.9347 79.0987 26.641C81.2256 25.3473 83.591 24.7004 86.1947 24.7004C88.175 24.7004 90.0636 25.144 91.8605 26.0311C93.6574 26.8812 95.0877 28.0271 96.1511 29.4687V14.8867H103.962V55.9158H96.1511V51.3693C95.1977 52.8848 93.8591 54.1046 92.1356 55.0287C90.412 55.9527 88.4134 56.4148 86.1397 56.4148C83.5726 56.4148 81.2256 55.7494 79.0987 54.4188C76.9717 53.0881 75.2848 51.2214 74.0379 48.8188C72.8277 46.3793 72.2227 43.5886 72.2227 40.4467ZM96.2062 40.5576C96.2062 38.6725 95.8394 37.0646 95.106 35.7339C94.3726 34.3663 93.3824 33.3313 92.1356 32.629C90.8887 31.8897 89.5502 31.5201 88.12 31.5201C86.6898 31.5201 85.3696 31.8713 84.1594 32.5736C82.9492 33.2759 81.9591 34.3108 81.189 35.6785C80.4555 37.0091 80.0888 38.5986 80.0888 40.4467C80.0888 42.2949 80.4555 43.9212 81.189 45.3258C81.9591 46.6935 82.9492 47.7469 84.1594 48.4862C85.4062 49.2254 86.7264 49.5951 88.12 49.5951C89.5502 49.5951 90.8887 49.2439 92.1356 48.5416C93.3824 47.8024 94.3726 46.7674 95.106 45.4367C95.8394 44.0691 96.2062 42.4427 96.2062 40.5576Z" fill="#0B0B0B"/>
<path d="M140.638 25.1994L121.77 70.4423H113.574L120.175 55.1395L107.963 25.1994H116.6L124.466 46.6565L132.442 25.1994H140.638Z" fill="#0B0B0B"/>
<path d="M153.756 31.5756V46.4347C153.756 47.4697 153.994 48.2274 154.471 48.708C154.984 49.1515 155.828 49.3733 157.001 49.3733H160.577V55.9158H155.736C149.245 55.9158 146 52.7369 146 46.3793V31.5756H142.369V25.1994H146V17.6035H153.756V25.1994H160.577V31.5756H153.756Z" fill="#0B0B0B"/>
<path d="M194.445 39.8923C194.445 41.0012 194.372 41.9992 194.225 42.8863H171.947C172.13 45.1041 172.9 46.8413 174.257 48.0981C175.614 49.3548 177.282 49.9832 179.263 49.9832C182.123 49.9832 184.158 48.7449 185.369 46.2684H193.675C192.795 49.2254 191.108 51.665 188.614 53.5871C186.12 55.4722 183.058 56.4148 179.428 56.4148C176.494 56.4148 173.854 55.7679 171.507 54.4742C169.196 53.1435 167.381 51.2769 166.061 48.8743C164.777 46.4717 164.135 43.6995 164.135 40.5576C164.135 37.3788 164.777 34.5881 166.061 32.1855C167.344 29.7828 169.141 27.9347 171.452 26.641C173.762 25.3473 176.421 24.7004 179.428 24.7004C182.325 24.7004 184.91 25.3288 187.184 26.5855C189.494 27.8423 191.273 29.635 192.52 31.9637C193.803 34.2554 194.445 36.8982 194.445 39.8923ZM186.469 37.6745C186.432 35.6785 185.717 34.0891 184.323 32.9062C182.93 31.6864 181.225 31.0766 179.208 31.0766C177.301 31.0766 175.687 31.668 174.367 32.8508C173.083 33.9966 172.295 35.6045 172.002 37.6745H186.469Z" fill="#0B0B0B"/>
</svg>
